# xmcd CD database file
#
# Track frame offsets:
#	150
#	17160
#	38412
#	57422
#	76445
#	103055
#	121037
#	137385
#	159417
#	178660
#	197072
#
# Disc length: 3044 seconds
#
# Revision: 3
# Processed by: cddbd v1.5.2PL0 Copyright (c) Steve Scherf et al.
# Submitted via: CDex 1.51
#
DISCID=840be20b
DTITLE=Oliver Pospiech´s Small Big Band - cool blue
DYEAR=1998
DGENRE=Jazz
TTITLE0=Soft Winds
TTITLE1=Nostalgia
TTITLE2=Sheep Coat Shuffle
TTITLE3=Nuages
TTITLE4=When Your Lover Has Gone
TTITLE5=Everything I Love
TTITLE6=The Man I Love
TTITLE7=It Had To Be You
TTITLE8=Limehouse Blues
TTITLE9=Cry Me A River
TTITLE10=Coastline
EXTD=YEAR: 1998
EXTT0=
EXTT1=
EXTT2=
EXTT3=
EXTT4=
EXTT5=
EXTT6=
EXTT7=
EXTT8=
EXTT9=
EXTT10=
PLAYORDER=
